<?xml version="1.0" encoding="UTF-8" standalone="no"?>
<!-- Created with Inkscape (http://www.inkscape.org/) -->

<svg
   width="551.62439mm"
   height="93.413788mm"
   viewBox="0 0 551.62439 93.413788"
   version="1.1"
   id="svg1"
   inkscape:version="1.3.2 (091e20e, 2023-11-25, custom)"
   sodipodi:docname="globetrotter-logo.svg"
   xmlns:inkscape="http://www.inkscape.org/namespaces/inkscape"
   xmlns:sodipodi="http://sodipodi.sourceforge.net/DTD/sodipodi-0.dtd"
   xmlns="http://www.w3.org/2000/svg"
   xmlns:svg="http://www.w3.org/2000/svg">
  <sodipodi:namedview
     id="namedview1"
     pagecolor="#ffffff"
     bordercolor="#666666"
     borderopacity="1.0"
     inkscape:showpageshadow="2"
     inkscape:pageopacity="0.0"
     inkscape:pagecheckerboard="0"
     inkscape:deskcolor="#d1d1d1"
     inkscape:document-units="mm"
     inkscape:zoom="0.50377736"
     inkscape:cx="845.61165"
     inkscape:cy="-149.86779"
     inkscape:window-width="2560"
     inkscape:window-height="1369"
     inkscape:window-x="1912"
     inkscape:window-y="-8"
     inkscape:window-maximized="1"
     inkscape:current-layer="layer1" />
  <defs
     id="defs1" />
  <g
     inkscape:label="Layer 1"
     inkscape:groupmode="layer"
     id="layer1"
     transform="translate(144.18525,-148.49997)">
    <path
       style="font-size:97.4787px;line-height:1.15;font-family:shockwave;-inkscape-font-specification:shockwave;word-spacing:0px;fill:#ffffff;stroke-width:5.41548"
       d="m -90.862038,190.53616 c -6.920988,-1.3647 -14.719282,0.97479 -21.152882,3.70419 -6.14115,2.53445 -11.50248,5.9462 -16.37642,10.5277 -0.48739,0.38992 7.11595,6.62855 8.87056,5.0689 2.82689,-2.43697 5.84873,-4.77646 8.96804,-6.92099 -0.48739,1.26722 -1.07226,2.43696 -1.75461,3.70419 -2.24201,4.28906 -4.87394,8.6756 -8.09073,12.37979 -3.02184,3.60671 -6.82351,7.7983 -11.30753,9.45544 -0.68235,0.29243 -1.46218,0.58487 -2.33949,0.68235 -0.29244,-1.3647 -0.38992,-2.72941 -0.38992,-4.09411 -0.0975,-4.67898 0.77983,-9.45543 1.46218,-14.03693 0.87731,-5.16637 2.04706,-10.33274 3.60672,-15.30416 3.02184,-9.26047 7.40838,-18.71591 13.54953,-26.31924 1.65714,-2.04706 3.7042,-4.09411 6.23864,-5.0689 0.77983,-0.29243 1.65714,-0.38991 2.43697,-0.48739 1.85209,3.99663 1.16974,8.6756 1.85209,12.96467 0.19496,0.77983 4.09411,3.21679 4.67898,2.53444 2.436969,-3.11932 3.021842,-8.6756 1.364704,-12.28231 -1.169744,-2.53445 -3.704194,-4.38655 -6.043684,-5.75125 -2.92436,-1.85209 -6.33611,-3.41175 -9.84534,-3.41175 -5.9462,0 -10.04031,4.97141 -13.25711,9.35795 -3.41175,4.87394 -6.23863,10.33275 -8.57812,15.98651 -4.38654,10.91761 -7.31091,23.19993 -7.21343,35.09233 0.0975,6.14116 2.92436,10.13779 8.18821,13.15963 2.33949,1.3647 5.26385,2.7294 8.09074,2.04705 2.43696,-0.58487 4.67897,-2.33949 6.43359,-3.99663 2.24201,-2.24201 4.09411,-4.77645 5.84872,-7.40838 1.94958,-2.7294 3.80167,-5.45881 5.45881,-8.28569 2.63192,-4.67898 4.97141,-9.65039 6.14116,-14.81676 2.7294,-1.46218 5.653762,-2.82688 8.480644,-3.89915 1.559659,-0.58487 5.946201,-1.55966 6.531073,-3.31427 0.194957,-0.4874 -1.559659,-1.16975 -1.852095,-1.26723 z m -44.255332,38.69905 c -1.75461,0 -1.16974,-0.4874 0,0 z m 1.75462,1.46218 c -0.0975,-0.0975 -0.0975,-0.19496 -0.0975,-0.29244 0.19496,0.29244 0.38992,0.58487 0.58487,0.97479 -0.0975,-0.29244 -0.38991,-0.4874 -0.48739,-0.68235 z m 42.500782,3.21679 c 1.55966,0.87731 3.314276,1.75462 5.068893,1.07227 2.047052,-0.77983 3.606712,-2.82688 5.166371,-4.28906 3.509233,-3.41176 7.018466,-6.82351 10.527699,-10.23527 4.094106,-3.99662 8.090732,-7.99325 12.184838,-11.8924 3.801669,-3.70419 9.162997,-7.60334 10.820135,-12.86719 0.09748,-0.48739 -2.339489,-1.85209 -2.826882,-1.65713 -4.386542,1.75461 -7.50586,4.97141 -10.820136,8.28569 -3.216797,3.11931 -6.433594,6.23863 -9.650391,9.35795 -3.216797,3.11932 -6.433594,6.23864 -9.650391,9.45543 -1.559659,1.46218 -3.119318,3.02184 -4.678978,4.48402 -1.072265,1.07227 -2.047052,2.24201 -3.216797,3.2168 0.194958,-0.48739 0.487394,-0.97479 0.682351,-1.46218 1.559659,-4.0941 2.924361,-8.28569 4.289063,-12.47727 2.729404,-8.48065 5.458807,-16.86382 8.090732,-25.34446 3.119318,-9.84535 6.823509,-19.59322 8.578125,-29.82849 0.194958,-1.26722 -5.848721,-4.58149 -6.433594,-3.70419 -4.971413,8.57813 -7.798296,18.13104 -11.015093,27.489 -3.216797,9.35795 -6.238636,18.91086 -8.870561,28.56126 -1.267223,4.48402 -2.631925,9.06551 -3.216797,13.64701 -0.487394,4.09411 1.46218,6.33612 4.971413,8.18821 z m 46.594899,-14.71928 c 2.534446,2.14453 6.043679,4.28906 9.455434,4.87394 2.631925,0.38991 4.971414,-0.87731 6.823509,-2.72941 3.801669,-3.70419 6.823509,-8.77308 9.162998,-13.45206 2.534446,-4.97141 4.289062,-10.23526 5.458807,-15.59659 0.974787,-4.97141 1.949574,-11.01509 0.974787,-16.08399 -0.682351,-3.21679 -3.80167,-5.06889 -6.531073,-6.43359 -2.436968,-1.3647 -4.873935,-2.04705 -7.115945,-0.77983 -0.974787,-0.48739 -1.949574,-0.87731 -2.24201,-0.77983 -4.873935,1.46218 -9.552913,5.84872 -12.477274,9.84535 -2.826882,4.0941 -5.068892,8.77308 -6.433594,13.45206 -1.46218,5.06889 -2.144531,10.33274 -1.949574,15.49911 0.194958,4.77646 1.072266,8.96804 4.873935,12.18484 z m 4.48402,-11.11257 c 0.292436,-4.19159 1.072266,-8.28569 2.339489,-12.28232 1.169744,-3.60671 2.826882,-6.92099 4.678978,-10.13778 0,0.87731 0.09748,1.85209 0.292436,2.7294 0.292436,1.26722 6.920987,4.5815 7.115945,3.80167 1.169744,-4.67898 1.852095,-9.06552 4.094105,-13.45206 0.292436,-0.48739 0.584872,-1.07227 0.974787,-1.65714 -0.194957,8.28569 -2.24201,16.66886 -5.751243,24.17472 -1.949574,4.28906 -4.386542,8.48065 -7.408381,12.08736 -1.364702,1.55966 -2.729404,3.2168 -4.581499,4.38654 -0.292436,0.19496 -0.584872,0.29244 -0.877308,0.48739 -1.072266,-3.21679 -1.072266,-6.82351 -0.877309,-10.13778 z m 71.549427,1.26722 c 2.339489,-2.82688 5.166371,-5.9462 4.971414,-9.74787 -0.09748,-4.67898 -4.971414,-7.3109 -8.578126,-9.163 -0.389915,-0.19495 -0.877308,-0.38991 -1.267223,-0.58487 0.487394,-0.19496 0.974787,-0.48739 1.462181,-0.68235 3.509233,-1.75462 7.018466,-3.70419 10.137784,-5.9462 2.631925,-1.94957 5.458807,-4.5815 6.04368,-7.99325 0.584872,-3.31428 -1.364702,-5.9462 -3.899148,-7.99326 -3.411755,-2.82688 -7.700818,-5.06889 -12.087359,-5.75124 -7.700817,-1.16974 -16.278943,0.0975 -23.7848025,2.04705 -4.09410534,1.07227 -8.1882107,2.43697 -11.9898799,4.38654 -1.5596592,0.77983 -3.3142756,1.8521 -3.6067116,3.60672 -0.389915,2.04705 0.877308,3.50923 2.2420098,4.87393 0.4873935,0.38992 4.9714136,2.92436 4.8739349,2.04705 -0.1949574,-0.77983 0.5848722,-2.24201 0.974787,-2.82688 0.6823509,-1.16974 1.6571379,-1.94957 2.82688226,-2.53444 3.02183964,-1.65714 6.43359414,-2.63193 9.65039114,-3.60672 6.4335939,-1.94957 13.0621459,-3.02184 19.6906969,-3.11931 1.754617,-0.0975 3.509233,-0.0975 5.166371,0.0975 0.292436,0 0.584873,0.0975 0.877309,0.19496 1.364701,2.43697 0.584872,5.36133 -1.072266,7.50586 -3.509233,4.87394 -9.845349,7.7983 -15.109198,10.5277 -2.826883,1.46218 -5.751244,2.7294 -8.675605,4.09411 0.487394,-1.8521 1.072266,-3.60672 1.462181,-5.45881 0.487393,-2.53445 1.46218,-4.87394 0.292436,-7.3109 -0.292436,-0.68235 -2.4369675,-2.04706 -3.2167971,-1.8521 -2.24201,0.58487 -2.8268822,2.92436 -3.7041905,4.87394 -0.974787,2.14453 -1.6571379,4.28906 -2.5344462,6.43359 -1.6571379,4.28906 -3.11931833,8.57813 -4.6789775,12.96467 -1.4621805,4.19158 -2.924361,8.38317 -4.3865415,12.67223 -0.6823508,2.14453 -1.5596591,4.28906 -2.1445313,6.53107 -0.2924361,1.26722 -0.5848722,2.43697 -0.8773083,3.60671 -0.2924361,1.3647 -0.1949574,2.04706 0.2924361,3.31428 -0.097479,0 -0.097479,0 -0.097479,0 -0.8773083,0.19496 -1.754617,0.38991 -2.631925,0.38991 -0.09748,0 -0.194957,0 -0.389915,0 0,-0.19495 -0.09748,-0.29243 -0.194957,-0.48739 -0.194957,-0.68235 -0.389915,-1.46218 -0.292436,-2.24201 0.09748,-1.16974 0.584872,-2.43697 1.46218,-3.31428 0.389915,-0.38991 -3.899148,-3.11931 -4.678977,-2.82688 -2.631925,0.87731 -4.191584,3.60671 -2.924361,6.33612 1.754616,3.60671 7.115945,6.14116 10.8201354,7.21342 7.40838107,2.14453 16.181464,-2.14453 22.5175796,-5.75124 6.531073,-3.80167 12.282316,-8.77309 17.058772,-14.52433 z m 2.924361,-43.76793 c 0,0 0,0 0,0 z m -7.603338,30.31587 c -0.584873,2.82688 -2.631925,5.26385 -4.386542,7.40838 -6.043679,7.3109 -13.5495391,13.7445 -22.22514324,17.8386 0.58487224,-1.65713 1.07226564,-3.21679 1.65713784,-4.87393 1.3647018,-4.38654 2.8268823,-8.77308 4.1915841,-13.2571 0.5848722,-1.8521 1.1697444,-3.80167 1.7546166,-5.75125 0.1949574,0.0975 0.3899148,0.0975 0.4873935,0.0975 3.5092332,-0.38991 6.8235092,-1.75461 10.3327422,-2.43697 2.631925,-0.48739 5.458807,-0.77983 8.285689,-0.77983 0,0.4874 0,1.07227 -0.09748,1.75462 z m 16.376347,-12.67223 c 0.682351,1.3647 4.191584,3.41175 5.751243,3.2168 0.584872,0 1.169745,-0.29244 1.559659,-0.68235 -0.584872,1.65713 -1.169744,3.31427 -1.852095,4.97141 -1.657138,4.5815 -3.314276,9.26048 -4.873935,13.93945 -1.852095,1.26723 -3.606712,2.63193 -5.361328,4.19159 -0.194958,0.0975 2.24201,1.94957 3.314276,2.14453 -0.487394,1.85209 -0.682351,3.80167 0.584872,5.45881 1.364701,1.55966 3.411754,2.7294 5.263849,3.70419 1.462181,0.77983 3.02184,1.55966 4.678978,1.55966 2.924361,-0.0975 6.238637,-1.8521 8.96804,-2.92436 3.314276,-1.16975 6.628552,-2.33949 9.942828,-3.50924 3.509233,-1.26722 6.920987,-2.63192 10.43022,-4.0941 1.754617,-0.68235 3.509233,-1.46218 5.361329,-2.33949 1.46218,-0.58487 2.924361,-1.16975 3.801669,-2.63193 0.389915,-0.58487 -3.02184,-2.14453 -3.509233,-2.14453 -4.289063,0 -8.383168,1.46218 -12.477274,2.72941 -3.411754,1.07226 -6.920987,2.14453 -10.332742,3.31427 -3.314275,1.16975 -6.72603,2.33949 -10.040306,3.50923 -1.267223,0.38992 -2.436967,0.87731 -3.70419,1.26723 0.487393,-1.46218 0.974787,-2.82688 1.46218,-4.19159 0.487394,-1.75461 1.072266,-3.41175 1.657138,-5.16637 2.631925,-1.07226 5.26385,-2.14453 7.895775,-3.02184 3.119318,-1.16974 6.238636,-2.04705 9.455434,-2.82688 2.729403,-0.68235 6.141158,-0.97479 8.383168,-2.63192 0,-0.0975 0,-0.0975 0,-0.19496 0,-0.0975 0,-0.29244 0,-0.4874 -0.09748,-0.77982 -2.24201,-1.55965 -2.826883,-1.75461 -3.996626,-1.07227 -8.090732,-0.19496 -11.98988,0.87731 -2.924361,0.68235 -5.751243,1.65713 -8.578125,2.7294 1.169744,-3.60671 2.24201,-7.3109 3.314276,-10.91761 0.487393,-1.8521 1.072265,-3.70419 1.559659,-5.55629 0.194957,-0.68235 0.389915,-1.3647 0.487393,-2.04705 2.144532,-0.58487 4.191584,-1.07227 6.238637,-1.55966 3.899148,-0.97479 7.895775,-1.75462 11.892401,-2.33949 2.047053,-0.29244 3.996627,-0.58487 6.04368,-0.87731 1.169744,-0.19496 3.70419,0 3.996626,-1.46218 0.194958,-0.97479 -2.924361,-2.33949 -3.606712,-2.53445 -4.48402,-1.26722 -9.162997,-0.8773 -13.744496,-0.19495 -4.289063,0.48739 -8.480647,1.3647 -12.672231,2.43696 -0.194957,0.0975 -0.487393,0.0975 -0.682351,0.19496 -0.682351,-0.38991 -1.364702,-0.58487 -1.852095,-0.48739 -0.974787,0.29243 -1.559659,0.77983 -2.047053,1.55966 -2.047052,0.58487 -4.094105,1.26722 -6.043679,2.14453 -2.24201,1.07226 -7.213424,3.50923 -5.848722,6.62855 z m 94.456772,-26.41673 c 2.92436,-0.19495 5.84872,-0.29243 8.77308,-0.29243 1.55966,0 3.11932,0 4.67898,0 1.26722,0 2.14453,0.19495 3.02184,-0.77983 0.58487,-0.77983 -4.48402,-3.31428 -5.0689,-3.50924 -6.04367,-1.75461 -12.47727,-1.07226 -18.61843,-0.77983 -3.89914,0.19496 -7.70081,0.4874 -11.405,0.87731 -0.38992,-1.26722 -5.75125,-4.48402 -6.92099,-3.70419 -1.65714,1.26723 -2.63193,3.11932 -3.31428,5.16637 -9.845346,1.55966 -19.788174,3.80167 -28.853692,7.89578 -0.389915,0.19496 2.534446,2.33949 3.314275,2.24201 7.993254,-1.3647 15.791549,-2.82688 23.784807,-3.99663 -1.07227,3.50923 -2.04706,7.01847 -3.02184,10.5277 -1.94958,7.40838 -3.70419,14.81676 -5.166375,22.32262 -1.46218,7.50586 -2.631925,15.1092 -3.606712,22.71254 -0.487393,3.99663 -0.974787,7.89577 -1.169744,11.8924 -0.292436,3.89915 -0.77983,8.67561 0.779829,12.28232 0.292437,0.68235 3.216797,2.7294 3.899148,2.14453 1.462184,-1.16975 1.754614,-3.60671 2.242014,-5.36133 0.48739,-1.75462 0.8773,-3.41175 1.16974,-5.16637 0.68235,-3.80167 1.3647,-7.70082 2.04705,-11.50249 1.36471,-7.40838 2.82689,-14.81676 4.48402,-22.22514 1.65714,-7.40838 3.41176,-14.81676 5.36133,-22.12767 0.97479,-3.80166 2.04705,-7.60333 3.11932,-11.405 0.48739,-1.94958 1.16974,-3.80167 1.55966,-5.75125 0.48739,-0.0975 0.97479,-0.0975 1.3647,-0.19495 5.84872,-0.58488 11.69745,-1.07227 17.54617,-1.26723 z m 24.95465,38.11417 c 4.19158,-0.19495 8.38316,-0.38991 12.57475,-0.77983 3.89915,-0.38991 7.79829,-0.58487 11.40501,-2.24201 0.77983,-0.38991 -3.89915,-3.21679 -4.67898,-3.31427 -9.163,-0.68235 -18.326,0.38991 -27.39152,0.68235 -1.94957,0.0975 -3.89914,0.19496 -5.84872,0.19496 2.24201,-1.16975 4.38654,-2.33949 6.53107,-3.70419 3.02184,-1.75462 5.84873,-3.60672 8.67561,-5.55629 2.7294,-1.94957 5.9462,-3.89915 8.28569,-6.43359 2.14453,-2.33949 2.33949,-4.87394 -0.0975,-7.01847 -2.82688,-2.43697 -6.43359,-3.89915 -10.04031,-4.5815 -6.14115,-1.16974 -12.47727,-1.16974 -18.61843,0 -6.43359,1.3647 -14.03693,3.89915 -18.42347,9.06552 -0.38992,0.38992 3.70419,3.02184 4.38654,2.63193 2.43697,-1.07227 4.87393,-2.14454 7.3109,-3.2168 -0.29243,0.68235 -0.48739,1.26722 -0.68235,1.85209 -0.87731,2.53445 -1.85209,5.0689 -2.7294,7.60334 -0.87731,2.82688 -1.75462,5.65377 -2.72941,8.48065 -0.68235,0.29243 -1.46218,0.58487 -2.14453,0.87731 -0.87731,0.38991 0.19496,1.3647 1.26723,2.04705 -0.4874,1.26722 -0.87731,2.53445 -1.26723,3.70419 -1.55966,5.06889 -3.11932,10.13778 -4.5815,15.20668 -0.77983,2.63192 -1.46218,5.36133 -2.04705,7.99325 -0.29243,1.26722 -0.38991,2.53445 -0.68235,3.80167 -0.29244,1.8521 -0.29244,2.53445 0.38992,4.48402 0.29243,0.87731 3.60671,2.92436 4.48402,2.43697 1.65713,-0.87731 1.85209,-1.46218 2.63192,-3.11932 0.48739,-1.16975 1.07227,-2.33949 1.55966,-3.60671 0.97479,-2.53445 1.85209,-5.0689 2.63192,-7.70082 1.46218,-5.06889 3.11932,-10.13778 4.48402,-15.30416 0.38992,-1.46218 0.87731,-2.92436 1.26723,-4.28906 7.99325,0.19496 16.08398,0.0975 24.07724,-0.19496 z m -18.326,-26.90412 c 0,-0.0975 0,-0.0975 0,-0.19495 1.65714,-0.4874 3.41176,-0.97479 5.26385,-1.26723 3.60671,-0.68235 7.21342,-0.97478 10.91761,-0.87731 1.75462,0.0975 3.60672,0.29244 5.45881,0.58488 -0.0975,0.19495 -0.19496,0.48739 -0.29243,0.77983 -0.4874,0.77983 -1.07227,1.3647 -1.75462,1.94957 -1.46218,1.26722 -3.02184,2.33949 -4.5815,3.41175 -3.11932,2.24201 -6.43359,4.38655 -9.65039,6.33612 -2.53445,1.55966 -5.16637,3.02184 -7.7983,4.48402 1.3647,-4.87393 3.11932,-10.23526 2.43697,-15.20668 z m 44.54767,51.17632 c 2.53444,2.14453 6.04368,4.28906 9.45543,4.87394 2.63193,0.38991 4.97142,-0.87731 6.82351,-2.72941 3.80167,-3.70419 6.82351,-8.77308 9.163,-13.45206 2.53444,-4.97141 4.28906,-10.23526 5.45881,-15.59659 0.97478,-4.97141 1.94957,-11.01509 0.97478,-16.08399 -0.68235,-3.21679 -3.80167,-5.06889 -6.53107,-6.43359 -2.43697,-1.3647 -4.87394,-2.04705 -7.11595,-0.77983 -0.97478,-0.48739 -1.94957,-0.87731 -2.24201,-0.77983 -4.87393,1.46218 -9.55291,5.84872 -12.47727,9.84535 -2.82688,4.0941 -5.06889,8.77308 -6.43359,13.45206 -1.46218,5.06889 -2.14453,10.33274 -1.94958,15.49911 0.19496,4.77646 1.07227,8.96804 4.87394,12.18484 z m 4.48402,-11.11257 c 0.29243,-4.19159 1.07226,-8.28569 2.33949,-12.28232 1.16974,-3.60671 2.82688,-6.92099 4.67897,-10.13778 0,0.87731 0.0975,1.85209 0.29244,2.7294 0.29244,1.26722 6.92099,4.5815 7.11595,3.80167 1.16974,-4.67898 1.85209,-9.06552 4.0941,-13.45206 0.29244,-0.48739 0.58487,-1.07227 0.97479,-1.65714 -0.19496,8.28569 -2.24201,16.66886 -5.75125,24.17472 -1.94957,4.28906 -4.38654,8.48065 -7.40838,12.08736 -1.3647,1.55966 -2.7294,3.2168 -4.5815,4.38654 -0.29243,0.19496 -0.58487,0.29244 -0.8773,0.48739 -1.07227,-3.21679 -1.07227,-6.82351 -0.87731,-10.13778 z m 72.81666,-51.2738 c 2.92436,-0.19495 5.84872,-0.29243 8.77309,-0.29243 1.55965,0 3.11931,0 4.67897,0 1.26723,0 2.14453,0.19495 3.02184,-0.77983 0.58487,-0.77983 -4.48402,-3.31428 -5.06889,-3.50924 -6.04368,-1.75461 -12.47727,-1.07226 -18.61843,-0.77983 -3.89915,0.19496 -7.70082,0.4874 -11.40501,0.87731 -0.38991,-1.26722 -5.75124,-4.48402 -6.92099,-3.70419 -1.65713,1.26723 -2.63192,3.11932 -3.31427,5.16637 -9.84535,1.55966 -19.78818,3.80167 -28.8537,7.89578 -0.38991,0.19496 2.53445,2.33949 3.31428,2.24201 7.99325,-1.3647 15.79155,-2.82688 23.7848,-3.99663 -1.07226,3.50923 -2.04705,7.01847 -3.02184,10.5277 -1.94957,7.40838 -3.70419,14.81676 -5.16637,22.32262 -1.46218,7.50586 -2.63192,15.1092 -3.60671,22.71254 -0.4874,3.99663 -0.97479,7.89577 -1.16975,11.8924 -0.29243,3.89915 -0.77983,8.67561 0.77983,12.28232 0.29244,0.68235 3.2168,2.7294 3.89915,2.14453 1.46218,-1.16975 1.75462,-3.60671 2.24201,-5.36133 0.48739,-1.75462 0.87731,-3.41175 1.16975,-5.16637 0.68235,-3.80167 1.3647,-7.70082 2.04705,-11.50249 1.3647,-7.40838 2.82688,-14.81676 4.48402,-22.22514 1.65714,-7.40838 3.41175,-14.81676 5.36133,-22.12767 0.97478,-3.80166 2.04705,-7.60333 3.11932,-11.405 0.48739,-1.94958 1.16974,-3.80167 1.55965,-5.75125 0.4874,-0.0975 0.97479,-0.0975 1.36471,-0.19495 5.84872,-0.58488 11.69744,-1.07227 17.54616,-1.26723 z m 43.18314,0 c 2.92436,-0.19495 5.84872,-0.29243 8.77308,-0.29243 1.55966,0 3.11932,0 4.67898,0 1.26722,0 2.14453,0.19495 3.02184,-0.77983 0.58487,-0.77983 -4.48402,-3.31428 -5.06889,-3.50924 -6.04368,-1.75461 -12.47728,-1.07226 -18.61844,-0.77983 -3.89914,0.19496 -7.70081,0.4874 -11.405,0.87731 -0.38992,-1.26722 -5.75125,-4.48402 -6.92099,-3.70419 -1.65714,1.26723 -2.63193,3.11932 -3.31428,5.16637 -9.84535,1.55966 -19.78817,3.80167 -28.85369,7.89578 -0.38992,0.19496 2.53444,2.33949 3.31427,2.24201 7.99326,-1.3647 15.79155,-2.82688 23.78481,-3.99663 -1.07227,3.50923 -2.04706,7.01847 -3.02184,10.5277 -1.94958,7.40838 -3.70419,14.81676 -5.16637,22.32262 -1.46218,7.50586 -2.63193,15.1092 -3.60672,22.71254 -0.48739,3.99663 -0.97478,7.89577 -1.16974,11.8924 -0.29244,3.89915 -0.77983,8.67561 0.77983,12.28232 0.29244,0.68235 3.2168,2.7294 3.89915,2.14453 1.46218,-1.16975 1.75461,-3.60671 2.24201,-5.36133 0.48739,-1.75462 0.87731,-3.41175 1.16974,-5.16637 0.68235,-3.80167 1.3647,-7.70082 2.04705,-11.50249 1.36471,-7.40838 2.82689,-14.81676 4.48402,-22.22514 1.65714,-7.40838 3.41176,-14.81676 5.36133,-22.12767 0.97479,-3.80166 2.04706,-7.60333 3.11932,-11.405 0.48739,-1.94958 1.16975,-3.80167 1.55966,-5.75125 0.48739,-0.0975 0.97479,-0.0975 1.3647,-0.19495 5.84872,-0.58488 11.69745,-1.07227 17.54617,-1.26723 z m -13.54947,26.41673 c 0.68235,1.3647 4.19159,3.41175 5.75125,3.2168 0.58487,0 1.16974,-0.29244 1.55965,-0.68235 -0.58487,1.65713 -1.16974,3.31427 -1.85209,4.97141 -1.65714,4.5815 -3.31428,9.26048 -4.87394,13.93945 -1.85209,1.26723 -3.60671,2.63193 -5.36132,4.19159 -0.19496,0.0975 2.24201,1.94957 3.31427,2.14453 -0.48739,1.85209 -0.68235,3.80167 0.58487,5.45881 1.36471,1.55966 3.41176,2.7294 5.26385,3.70419 1.46218,0.77983 3.02184,1.55966 4.67898,1.55966 2.92436,-0.0975 6.23864,-1.8521 8.96804,-2.92436 3.31428,-1.16975 6.62855,-2.33949 9.94283,-3.50924 3.50923,-1.26722 6.92099,-2.63192 10.43022,-4.0941 1.75462,-0.68235 3.50923,-1.46218 5.36133,-2.33949 1.46218,-0.58487 2.92436,-1.16975 3.80167,-2.63193 0.38991,-0.58487 -3.02184,-2.14453 -3.50924,-2.14453 -4.28906,0 -8.38316,1.46218 -12.47727,2.72941 -3.41175,1.07226 -6.92099,2.14453 -10.33274,3.31427 -3.31428,1.16975 -6.72603,2.33949 -10.04031,3.50923 -1.26722,0.38992 -2.43697,0.87731 -3.70419,1.26723 0.4874,-1.46218 0.97479,-2.82688 1.46218,-4.19159 0.4874,-1.75461 1.07227,-3.41175 1.65714,-5.16637 2.63192,-1.07226 5.26385,-2.14453 7.89577,-3.02184 3.11932,-1.16974 6.23864,-2.04705 9.45544,-2.82688 2.7294,-0.68235 6.14116,-0.97479 8.38317,-2.63192 0,-0.0975 0,-0.0975 0,-0.19496 0,-0.0975 0,-0.29244 0,-0.4874 -0.0975,-0.77982 -2.24201,-1.55965 -2.82689,-1.75461 -3.99662,-1.07227 -8.09073,-0.19496 -11.98988,0.87731 -2.92436,0.68235 -5.75124,1.65713 -8.57812,2.7294 1.16974,-3.60671 2.24201,-7.3109 3.31427,-10.91761 0.4874,-1.8521 1.07227,-3.70419 1.55966,-5.55629 0.19496,-0.68235 0.38992,-1.3647 0.4874,-2.04705 2.14453,-0.58487 4.19158,-1.07227 6.23863,-1.55966 3.89915,-0.97479 7.89578,-1.75462 11.89241,-2.33949 2.04705,-0.29244 3.99662,-0.58487 6.04367,-0.87731 1.16975,-0.19496 3.7042,0 3.99663,-1.46218 0.19496,-0.97479 -2.92436,-2.33949 -3.60671,-2.53445 -4.48402,-1.26722 -9.163,-0.8773 -13.7445,-0.19495 -4.28906,0.48739 -8.48064,1.3647 -12.67223,2.43696 -0.19496,0.0975 -0.48739,0.0975 -0.68235,0.19496 -0.68235,-0.38991 -1.3647,-0.58487 -1.85209,-0.48739 -0.97479,0.29243 -1.55966,0.77983 -2.04706,1.55966 -2.04705,0.58487 -4.0941,1.26722 -6.04368,2.14453 -2.24201,1.07226 -7.21342,3.50923 -5.84872,6.62855 z m 87.34089,11.69744 c 4.19159,-0.19495 8.38317,-0.38991 12.57476,-0.77983 3.89914,-0.38991 7.79829,-0.58487 11.405,-2.24201 0.77983,-0.38991 -3.89914,-3.21679 -4.67897,-3.31427 -9.163,-0.68235 -18.326,0.38991 -27.39152,0.68235 -1.94957,0.0975 -3.89915,0.19496 -5.84872,0.19496 2.24201,-1.16975 4.38654,-2.33949 6.53107,-3.70419 3.02184,-1.75462 5.84872,-3.60672 8.67561,-5.55629 2.7294,-1.94957 5.9462,-3.89915 8.28569,-6.43359 2.14453,-2.33949 2.33948,-4.87394 -0.0975,-7.01847 -2.82688,-2.43697 -6.4336,-3.89915 -10.04031,-4.5815 -6.14116,-1.16974 -12.47727,-1.16974 -18.61843,0 -6.43359,1.3647 -14.03693,3.89915 -18.42347,9.06552 -0.38992,0.38992 3.70419,3.02184 4.38654,2.63193 2.43696,-1.07227 4.87393,-2.14454 7.3109,-3.2168 -0.29244,0.68235 -0.48739,1.26722 -0.68235,1.85209 -0.87731,2.53445 -1.8521,5.0689 -2.7294,7.60334 -0.87731,2.82688 -1.75462,5.65377 -2.72941,8.48065 -0.68235,0.29243 -1.46218,0.58487 -2.14453,0.87731 -0.87731,0.38991 0.19496,1.3647 1.26722,2.04705 -0.48739,1.26722 -0.8773,2.53445 -1.26722,3.70419 -1.55966,5.06889 -3.11932,10.13778 -4.5815,15.20668 -0.77983,2.63192 -1.46218,5.36133 -2.04705,7.99325 -0.29244,1.26722 -0.38992,2.53445 -0.68235,3.80167 -0.29244,1.8521 -0.29244,2.53445 0.38991,4.48402 0.29244,0.87731 3.60671,2.92436 4.48402,2.43697 1.65714,-0.87731 1.8521,-1.46218 2.63193,-3.11932 0.48739,-1.16975 1.07226,-2.33949 1.55966,-3.60671 0.97478,-2.53445 1.85209,-5.0689 2.63192,-7.70082 1.46218,-5.06889 3.11932,-10.13778 4.48402,-15.30416 0.38992,-1.46218 0.87731,-2.92436 1.26723,-4.28906 7.99325,0.19496 16.08398,0.0975 24.07723,-0.19496 z m -18.32599,-26.90412 c 0,-0.0975 0,-0.0975 0,-0.19495 1.65714,-0.4874 3.41175,-0.97479 5.26385,-1.26723 3.60671,-0.68235 7.21342,-0.97478 10.91761,-0.87731 1.75462,0.0975 3.60671,0.29244 5.45881,0.58488 -0.0975,0.19495 -0.19496,0.48739 -0.29244,0.77983 -0.48739,0.77983 -1.07226,1.3647 -1.75461,1.94957 -1.46218,1.26722 -3.02184,2.33949 -4.5815,3.41175 -3.11932,2.24201 -6.4336,4.38655 -9.65039,6.33612 -2.53445,1.55966 -5.16637,3.02184 -7.7983,4.48402 1.3647,-4.87393 3.11932,-10.23526 2.43697,-15.20668 z"
       id="text1"
       aria-label="Globetrotter" />
  </g>
</svg>
