<?xml version="1.0" encoding="UTF-8" standalone="no"?>
<!-- Uploaded to: SVG Repo, www.svgrepo.com, Generator: SVG Repo Mixer Tools -->

<svg
   width="527.08667"
   height="716.55347"
   viewBox="0 0 15.8126 21.496604"
   fill="none"
   version="1.1"
   id="svg4"
   sodipodi:docname="nfc-icon.svg"
   inkscape:version="1.3.2 (091e20e, 2023-11-25, custom)"
   xmlns:inkscape="http://www.inkscape.org/namespaces/inkscape"
   xmlns:sodipodi="http://sodipodi.sourceforge.net/DTD/sodipodi-0.dtd"
   xmlns="http://www.w3.org/2000/svg"
   xmlns:svg="http://www.w3.org/2000/svg">
  <defs
     id="defs4" />
  <sodipodi:namedview
     id="namedview4"
     pagecolor="#ffffff"
     bordercolor="#666666"
     borderopacity="1.0"
     inkscape:showpageshadow="2"
     inkscape:pageopacity="0.0"
     inkscape:pagecheckerboard="0"
     inkscape:deskcolor="#d1d1d1"
     inkscape:zoom="0.99967221"
     inkscape:cx="260.08525"
     inkscape:cy="255.58378"
     inkscape:window-width="2560"
     inkscape:window-height="1369"
     inkscape:window-x="1912"
     inkscape:window-y="-8"
     inkscape:window-maximized="1"
     inkscape:current-layer="svg4" />
  <g
     id="g5"
     style="fill:#ffffff"
     transform="rotate(90,10.577929,9.3220713)">
    <g
       id="g4"
       style="fill:#ffffff">
      <path
         opacity="0.4"
         d="m 19.0909,12.5899 c -0.16,0 -0.32,-0.05 -0.46,-0.16 -4.03,-3.11 -9.23999,-3.11 -13.26999,0 -0.33,0.25 -0.8,0.19 -1.05,-0.13 -0.25,-0.33 -0.19,-0.8 0.13,-1.05 4.59,-3.55 10.51999,-3.55 15.09999,0 0.33,0.25 0.39,0.72 0.13,1.05 -0.13,0.19 -0.35,0.29 -0.58,0.29 z"
         fill="#292D32"
         id="path1"
         style="opacity:1;fill:#ffffff" />
      <path
         d="m 22.0005,9.1099 c -0.16,0 -0.32,-0.05 -0.46,-0.16001 -5.8,-4.48 -13.28998,-4.48 -19.07997,0 -0.33,0.25 -0.80001,0.19002 -1.05001,-0.12998 -0.25,-0.33 -0.19001,-0.80001 0.12999,-1.05001 6.35,-4.91 14.55999,-4.91 20.91999,0 0.33,0.25 0.39,0.72001 0.13,1.05001 -0.14,0.19 -0.37,0.28999 -0.59,0.28999 z"
         fill="#292D32"
         id="path2"
         style="fill:#ffffff" />
      <path
         d="m 17.2096,16.24 c -0.16,0 -0.32,-0.05 -0.46,-0.16 -2.88,-2.23 -6.61,-2.23 -9.50002,0 -0.33,0.25 -0.8,0.19 -1.05,-0.13 -0.25,-0.33 -0.19,-0.8 0.13,-1.05 3.44,-2.66 7.89002,-2.66 11.33002,0 0.33,0.25 0.39,0.72 0.13,1.05 -0.14,0.19 -0.36,0.29 -0.58,0.29 z"
         fill="#292D32"
         id="path3"
         style="fill:#ffffff" />
      <path
         opacity="0.4"
         d="m 14.5992,19.9 c -0.16,0 -0.32,-0.05 -0.46,-0.16 -1.3,-1.01 -2.99,-1.01 -4.29,0 -0.33,0.25 -0.80001,0.19 -1.05001,-0.13 -0.25,-0.33 -0.19001,-0.8 0.12999,-1.05 1.86002,-1.44 4.26002,-1.44 6.12002,0 0.33,0.25 0.39,0.72 0.13,1.05 -0.13,0.18 -0.35,0.29 -0.58,0.29 z"
         fill="#292D32"
         id="path4"
         style="opacity:1;fill:#ffffff" />
    </g>
  </g>
</svg>
