<?xml version="1.0" encoding="UTF-8" standalone="no"?>
<!-- Uploaded to: SVG Repo, www.svgrepo.com, Generator: SVG Repo Mixer Tools -->

<svg
   width="667.27081"
   height="466.82233"
   viewBox="0 0 20.018124 14.00467"
   fill="none"
   version="1.1"
   id="svg1"
   sodipodi:docname="video-link.svg"
   inkscape:version="1.3.2 (091e20e, 2023-11-25, custom)"
   xmlns:inkscape="http://www.inkscape.org/namespaces/inkscape"
   xmlns:sodipodi="http://sodipodi.sourceforge.net/DTD/sodipodi-0.dtd"
   xmlns="http://www.w3.org/2000/svg"
   xmlns:svg="http://www.w3.org/2000/svg">
  <defs
     id="defs1" />
  <sodipodi:namedview
     id="namedview1"
     pagecolor="#ffffff"
     bordercolor="#666666"
     borderopacity="1.0"
     inkscape:showpageshadow="2"
     inkscape:pageopacity="0.0"
     inkscape:pagecheckerboard="0"
     inkscape:deskcolor="#d1d1d1"
     inkscape:zoom="0.706875"
     inkscape:cx="-174.00531"
     inkscape:cy="24.756852"
     inkscape:window-width="2560"
     inkscape:window-height="1369"
     inkscape:window-x="1912"
     inkscape:window-y="-8"
     inkscape:window-maximized="1"
     inkscape:current-layer="svg1" />
  <g
     id="g8">
    <g
       id="g7">
      <path
         id="path1"
         style="color:#000000;fill:#21092f;stroke-linecap:round;stroke-linejoin:round;-inkscape-stroke:none"
         d="M 3.4345898,0 C 2.7303678,0.00362902 2.1974034,0.04635955 1.640625,0.33005859 1.0762352,0.61761506 0.61761506,1.0762352 0.33005859,1.640625 -0.0482068,2.3829963 0.00193358,3.0830088 0.00193359,4.2031055 v 5.5996288 c 0,1.1200967 -0.05016968,1.8200877 0.328125,2.5624807 0.28754607,0.564324 0.74606141,1.023013 1.31056641,1.310566 0.7423712,0.378284 1.4423738,0.326192 2.5624805,0.326192 h 6.5996485 c 1.120097,0 1.820081,0.05212 2.56248,-0.326192 0.564441,-0.287543 1.023022,-0.746127 1.310567,-1.310566 0.245976,-0.482704 0.197945,-1.092156 0.212871,-1.665996 l 1.175801,0.707051 c 0.79314,0.475923 1.242415,0.902355 2.123027,0.820312 0.568594,-0.05296 1.089832,-0.34644 1.427754,-0.80666 0.523524,-0.712964 0.386719,-1.319244 0.386719,-2.2441408 V 4.828125 c 0,-0.9249473 0.136905,-1.5311748 -0.386719,-2.2441406 C 19.277313,2.1236773 18.755977,1.8303156 18.1875,1.7773242 17.306768,1.6952161 16.857589,2.1237292 16.064473,2.5996289 L 14.886738,3.3046875 C 14.871699,2.7318827 14.921438,2.1226854 14.675801,1.640625 14.388246,1.07612 13.92956,0.61760466 13.365234,0.33005859 c -0.742393,-0.37829468 -1.442383,-0.328125 -2.56248,-0.328125 H 4.2031055 C 3.9230812,0.00193359 3.6693305,-0.00120967 3.4345898,0 Z m 0.7685157,2.0019727 h 6.5996485 c 1.120098,0 1.541074,0.051652 1.654277,0.1093359 0.188274,0.095933 0.339684,0.2493667 0.435528,0.4375195 0.05771,0.1132609 0.109394,0.5341796 0.109394,1.6542774 v 5.5996288 c 0,1.1200977 -0.05171,1.5410797 -0.109394,1.6542777 -0.09585,0.188159 -0.247369,0.339732 -0.435528,0.435586 -0.113198,0.05768 -0.534179,0.109336 -1.654277,0.109336 H 4.2031055 c -1.1201078,0 -1.5410109,-0.05162 -1.6542774,-0.109336 C 2.3606753,11.796758 2.2072415,11.645286 2.1113086,11.457012 2.0536245,11.343809 2.0019727,10.922832 2.0019727,9.8027343 V 4.2031055 c 0,-1.1200978 0.051623,-1.541011 0.1093359,-1.6542774 0.095923,-0.188268 0.2492515,-0.341597 0.4375195,-0.4375195 0.1132664,-0.057713 0.5341796,-0.1093359 1.6542774,-0.1093359 z m 13.7461525,1.859414 c 0.009,-0.00142 -0.02543,-0.034625 0,0 v 0 c 0.108414,0.010107 0.136624,-0.065644 0,0 0.01584,0.165975 0.05268,0.4803921 0.05268,0.9667383 v 4.3476562 c 0,0.4862528 -0.03678,0.8011742 -0.05262,0.9676758 0.136507,0.06514 0.108324,-0.01009 0,0 -0.06427,0.08753 -0.01428,0.1502 0,0 C 17.798495,10.071488 17.510015,9.9411965 17.09373,9.6914062 L 15.001934,8.4355664 V 5.5683398 L 17.09373,4.3144336 c 0.416187,-0.2497277 0.70466,-0.3805587 0.855528,-0.4530469 -0.0086,-0.090496 -0.01382,0.00218 0,0 z"
         sodipodi:nodetypes="sccssccssccccccssccccccsssssccssccssccssccsscccssccccccccs" />
      <path
         style="color:#000000;fill:#21092f;stroke-linecap:round;stroke-linejoin:round;-inkscape-stroke:none;fill-opacity:1"
         d="m 6.5019531,3.0019531 a 1,1 0 0 0 -1,1 1,1 0 0 0 1,1 H 8.0878906 L 3.7949219,9.2949219 a 1,1 0 0 0 0,1.4140621 1,1 0 0 0 1.4140625,0 L 9.5019531,6.4160156 v 1.5859375 a 1,1 0 0 0 0.9999999,1 1,1 0 0 0 1,-1 v -4 A 1,1 0 0 0 11.208984,3.2949219 1,1 0 0 0 10.501953,3.0019531 Z"
         id="path6" />
    </g>
  </g>
</svg>
