<?xml version="1.0" encoding="UTF-8" standalone="no"?>
<!-- Uploaded to: SVG Repo, www.svgrepo.com, Generator: SVG Repo Mixer Tools -->

<svg
   width="800"
   height="258.66666"
   viewBox="0 0 24 7.7599997"
   version="1.1"
   id="svg2"
   sodipodi:docname="visa-logo.svg"
   inkscape:version="1.3.2 (091e20e, 2023-11-25, custom)"
   xmlns:inkscape="http://www.inkscape.org/namespaces/inkscape"
   xmlns:sodipodi="http://sodipodi.sourceforge.net/DTD/sodipodi-0.dtd"
   xmlns="http://www.w3.org/2000/svg"
   xmlns:svg="http://www.w3.org/2000/svg">
  <defs
     id="defs2" />
  <sodipodi:namedview
     id="namedview2"
     pagecolor="#ffffff"
     bordercolor="#666666"
     borderopacity="1.0"
     inkscape:showpageshadow="2"
     inkscape:pageopacity="0.0"
     inkscape:pagecheckerboard="0"
     inkscape:deskcolor="#d1d1d1"
     inkscape:zoom="0.706875"
     inkscape:cx="621.04332"
     inkscape:cy="-208.6649"
     inkscape:window-width="2560"
     inkscape:window-height="1369"
     inkscape:window-x="1912"
     inkscape:window-y="-8"
     inkscape:window-maximized="1"
     inkscape:current-layer="g2" />
  <g
     id="g2"
     transform="translate(0,-8.12)">
    <path
       fill="none"
       d="M 0,0 H 24 V 24 H 0 Z"
       id="path1" />
    <path
       d="m 22.222,15.768 -0.225,-1.125 h -2.514 l -0.4,1.117 -2.015,0.004 a 4199.19,4199.19 0 0 1 2.884,-6.918 c 0.164,-0.391 0.455,-0.59 0.884,-0.588 0.328,0.003 0.863,0.003 1.606,0.001 L 24,15.765 Z m -2.173,-2.666 h 1.62 l -0.605,-2.82 z M 7.06,8.257 9.086,8.259 5.954,15.769 3.903,15.767 A 950.849,950.849 0 0 1 2.375,9.811 C 2.275,9.415 2.077,9.138 1.696,9.007 1.357,8.89 0.792,8.71 0,8.465 V 8.26 h 3.237 c 0.56,0 0.887,0.271 0.992,0.827 0.106,0.557 0.372,1.975 0.8,4.254 z M 11.87,8.259 10.268,15.767 8.34,15.765 9.94,8.257 Z M 15.78,8.12 c 0.577,0 1.304,0.18 1.722,0.345 l -0.338,1.557 c -0.378,-0.152 -1,-0.357 -1.523,-0.35 -0.76,0.013 -1.23,0.332 -1.23,0.638 0,0.498 0.816,0.749 1.656,1.293 0.959,0.62 1.085,1.177 1.073,1.782 -0.013,1.256 -1.073,2.495 -3.309,2.495 -1.02,-0.015 -1.388,-0.101 -2.22,-0.396 l 0.352,-1.625 c 0.847,0.355 1.206,0.468 1.93,0.468 0.663,0 1.232,-0.268 1.237,-0.735 0.004,-0.332 -0.2,-0.497 -0.944,-0.907 -0.744,-0.411 -1.788,-0.98 -1.774,-2.122 0.017,-1.462 1.402,-2.443 3.369,-2.443 z"
       id="path2"
       style="fill:#ffffff" />
  </g>
</svg>
